<svg width="32" height="32" fill="none" xmlns="http://www.w3.org/2000/svg"><g clip-path="url(#a)"><path d="M25.3333 4H19.76C19.2 2.4533 17.7333 1.3333 16 1.3333c-1.7333 0-3.2 1.12-3.76 2.6667H6.6667C5.2 4 4 5.2 4 6.6667v18.6666C4 26.8 5.2 28 6.6667 28h18.6666C26.8 28 28 26.8 28 25.3333V6.6667C28 5.2 26.8 4 25.3333 4ZM16 4c.7333 0 1.3333.6 1.3333 1.3333 0 .7334-.6 1.3334-1.3333 1.3334s-1.3333-.6-1.3333-1.3334C14.6667 4.6 15.2667 4 16 4Zm1.3333 18.6667h-6.6666c-.7334 0-1.3334-.6-1.3334-1.3334 0-.7333.6-1.3333 1.3334-1.3333h6.6666c.7334 0 1.3334.6 1.3334 1.3333 0 .7334-.6 1.3334-1.3334 1.3334Zm4-5.3334H10.6667c-.7334 0-1.3334-.6-1.3334-1.3333s.6-1.3333 1.3334-1.3333h10.6666c.7334 0 1.3334.6 1.3334 1.3333s-.6 1.3333-1.3334 1.3333Zm0-5.3333H10.6667c-.7334 0-1.3334-.6-1.3334-1.3333 0-.7334.6-1.3334 1.3334-1.3334h10.6666c.7334 0 1.3334.6 1.3334 1.3334 0 .7333-.6 1.3333-1.3334 1.3333Z" fill="#fff"/></g><defs><clipPath id="a"><path fill="#fff" d="M0 0h32v32H0z"/></clipPath></defs></svg>