<svg width="33" height="32" fill="none" xmlns="http://www.w3.org/2000/svg"><g clip-path="url(#a)"><path d="M15.1667 4.2401v23.52c0 .8533-.7867 1.4933-1.6134 1.3067-5.96-1.3334-10.3866-6.68-10.3866-13.0667 0-6.3867 4.4266-11.7333 10.3866-13.0667.8267-.1866 1.6134.4534 1.6134 1.3067Zm2.7066 0v9.08c0 .7333.6 1.3333 1.3334 1.3333H28.26c.8533 0 1.4933-.7866 1.3067-1.6266C28.4333 8.0134 24.5 4.0668 19.5 2.9334c-.84-.1866-1.6267.4534-1.6267 1.3067Zm0 14.44v9.08c0 .8533.7867 1.4933 1.6267 1.3067 5.0133-1.1334 8.9467-5.0934 10.08-10.1067.1867-.8267-.4667-1.6267-1.3067-1.6267H19.22c-.7467.0134-1.3467.6134-1.3467 1.3467Z" fill="#FF5E28"/></g><defs><clipPath id="a"><path fill="#fff" d="M.5 0h32v32H.5z"/></clipPath></defs></svg>