<svg width="32" height="32" fill="none" xmlns="http://www.w3.org/2000/svg"><g clip-path="url(#a)"><path d="M15.9867 2.6667c-7.36 0-13.32 5.9733-13.32 13.3333 0 7.36 5.96 13.3333 13.32 13.3333C23.36 29.3333 29.3333 23.36 29.3333 16c0-7.36-5.9733-13.3333-13.3466-13.3333Zm-4.6534 8c1.1067 0 2 .8933 2 2 0 1.1066-.8933 2-2 2-1.1066 0-2-.8934-2-2 0-1.1067.8934-2 2-2Zm10.9467 8.96C21.0667 22.2267 18.72 24 16 24s-5.0667-1.7733-6.28-4.3733c-.2133-.44.1067-.96.6-.96h11.36c.4933 0 .8133.52.6.96Zm-1.6133-4.96c-1.1067 0-2-.8934-2-2 0-1.1067.8933-2 2-2 1.1066 0 2 .8933 2 2 0 1.1066-.8934 2-2 2Z" fill="#fff"/></g><defs><clipPath id="a"><path fill="#fff" d="M0 0h32v32H0z"/></clipPath></defs></svg>