<svg width="32" height="32" fill="none" xmlns="http://www.w3.org/2000/svg"><g clip-path="url(#a)"><path d="M25.3333 6.6667h-2.6666V5.3333c0-.7333-.6-1.3333-1.3334-1.3333H10.6667c-.7334 0-1.3334.6-1.3334 1.3333v1.3334H6.6667C5.2 6.6667 4 7.8667 4 9.3333v1.3334c0 3.4 2.56 6.1733 5.8533 6.5866.84 2 2.64 3.5067 4.8134 3.9467v4.1333h-4c-.7334 0-1.3334.6-1.3334 1.3334 0 .7333.6 1.3333 1.3334 1.3333h10.6666c.7334 0 1.3334-.6 1.3334-1.3333 0-.7334-.6-1.3334-1.3334-1.3334h-4V21.2c2.1734-.44 3.9734-1.9467 4.8134-3.9467C25.44 16.84 28 14.0667 28 10.6667V9.3333c0-1.4666-1.2-2.6666-2.6667-2.6666Zm-18.6666 4V9.3333h2.6666v5.0934c-1.5466-.56-2.6666-2.0267-2.6666-3.76Zm18.6666 0c0 1.7333-1.12 3.2-2.6666 3.76V9.3333h2.6666v1.3334Z" fill="#fff"/></g><defs><clipPath id="a"><path fill="#fff" d="M0 0h32v32H0z"/></clipPath></defs></svg>