<svg aria-hidden="true" style="position:absolute;width:0;height:0;overflow:hidden" xmlns="http://www.w3.org/2000/svg"><defs><symbol id="icon-assignment" viewBox="0 0 32 32"><path fill="#fff" style="fill:var(--color1, #fff)" d="M25.333 4H19.76C19.2 2.453 17.733 1.333 16 1.333S12.8 2.453 12.24 4H6.667C5.2 4 4 5.2 4 6.667v18.667c0 1.467 1.2 2.667 2.667 2.667h18.667c1.467 0 2.667-1.2 2.667-2.667V6.667C28.001 5.2 26.801 4 25.334 4zM16 4c.733 0 1.333.6 1.333 1.333s-.6 1.333-1.333 1.333-1.333-.6-1.333-1.333S15.267 4 16 4zm1.333 18.667h-6.667c-.733 0-1.333-.6-1.333-1.333s.6-1.333 1.333-1.333h6.667c.733 0 1.333.6 1.333 1.333s-.6 1.333-1.333 1.333zm4-5.334H10.666c-.733 0-1.333-.6-1.333-1.333s.6-1.333 1.333-1.333h10.667c.733 0 1.333.6 1.333 1.333s-.6 1.333-1.333 1.333zm0-5.333H10.666c-.733 0-1.333-.6-1.333-1.333s.6-1.333 1.333-1.333h10.667c.733 0 1.333.6 1.333 1.333S22.066 12 21.333 12z"/></symbol><symbol id="icon-emotions" viewBox="0 0 32 32"><path fill="#fff" style="fill:var(--color1, #fff)" d="M15.987 2.667C8.627 2.667 2.667 8.64 2.667 16s5.96 13.333 13.32 13.333c7.373 0 13.347-5.973 13.347-13.333S23.361 2.667 15.987 2.667zm-4.654 8c1.107 0 2 .893 2 2s-.893 2-2 2-2-.893-2-2 .893-2 2-2zm10.947 8.96C21.067 22.227 18.72 24 16 24s-5.067-1.773-6.28-4.373c-.213-.44.107-.96.6-.96h11.36c.493 0 .813.52.6.96zm-1.613-4.96c-1.107 0-2-.893-2-2s.893-2 2-2 2 .893 2 2-.893 2-2 2z"/></symbol><symbol id="icon-events" viewBox="0 0 32 32"><path fill="#fff" style="fill:var(--color1, #fff)" d="M25.333 6.667h-2.667V5.334c0-.733-.6-1.333-1.333-1.333H10.666c-.733 0-1.333.6-1.333 1.333v1.333H6.666c-1.467 0-2.667 1.2-2.667 2.667v1.333c0 3.4 2.56 6.173 5.853 6.587.84 2 2.64 3.507 4.813 3.947v4.133h-4c-.733 0-1.333.6-1.333 1.333S9.932 28 10.665 28h10.667c.733 0 1.333-.6 1.333-1.333s-.6-1.333-1.333-1.333h-4v-4.133c2.173-.44 3.973-1.947 4.813-3.947 3.293-.413 5.853-3.187 5.853-6.587V9.334c0-1.467-1.2-2.667-2.667-2.667zm-18.666 4V9.334h2.667v5.093c-1.547-.56-2.667-2.027-2.667-3.76zm18.666 0c0 1.733-1.12 3.2-2.667 3.76V9.334h2.667v1.333z"/></symbol></defs></svg>