<svg aria-hidden="true" style="position:absolute;width:0;height:0;overflow:hidden" xmlns="http://www.w3.org/2000/svg"><defs><symbol id="icon-filter" viewBox="0 0 32 32"><path fill="#fff" style="fill:var(--color1, #fff)" d="M5.667 7.48c3.093 3.973 7.667 9.853 7.667 9.853V24c0 1.467 1.2 2.667 2.667 2.667s2.667-1.2 2.667-2.667v-6.667s4.573-5.88 7.667-9.853c.68-.88.053-2.147-1.067-2.147H6.721c-1.107 0-1.733 1.267-1.053 2.147z"/></symbol><symbol id="icon-desktop" viewBox="0 0 32 32"><path fill="#fff" style="fill:var(--color1, #fff)" d="M28 2.667H4c-1.467 0-2.667 1.2-2.667 2.667v16c0 1.467 1.2 2.667 2.667 2.667h9.333l-2.173 3.267c-.587.88.04 2.067 1.107 2.067h7.467c1.067 0 1.707-1.187 1.107-2.067l-2.173-3.267h9.333c1.467 0 2.667-1.2 2.667-2.667v-16c0-1.467-1.2-2.667-2.667-2.667zm0 16H4v-12c0-.733.6-1.333 1.333-1.333h21.333c.733 0 1.333.6 1.333 1.333v12z"/></symbol><symbol id="icon-app-settings" viewBox="0 0 32 32"><path fill="#fff" style="fill:var(--color1, #fff)" d="m29.08 16.987-1.093-.84v-.293l1.067-.84c.213-.16.267-.453.133-.68l-1.133-1.973c-.093-.173-.28-.267-.467-.267-.072 0-.141.015-.204.041l.004-.001-1.267.507c-.107-.067-.147-.093-.253-.147l-.2-1.347c-.04-.28-.267-.48-.533-.48h-2.28c-.267 0-.493.2-.533.453l-.187 1.347c-.04.027-.093.04-.133.067l-.12.08-1.267-.507a.517.517 0 0 0-.2-.04c-.187 0-.36.093-.467.267l-1.133 1.973c-.133.227-.08.52.133.68l1.067.84v.307l-1.067.84c-.213.16-.267.453-.133.68l1.133 1.973c.093.173.28.267.467.267.072 0 .141-.015.204-.041l-.004.001 1.267-.493c.107.067.16.093.267.147l.2 1.347c.04.267.267.453.533.453h2.28c.267 0 .493-.2.533-.453l.2-1.347c.04-.027.093-.04.133-.067l.12-.08 1.267.507c.059.025.128.04.2.04.187 0 .36-.093.467-.267l1.133-1.973c.133-.227.08-.52-.133-.68zM24 18c-1.107 0-2-.893-2-2s.893-2 2-2 2 .893 2 2-.893 2-2 2zm-1.333 4.667h2.667V28c0 1.467-1.2 2.667-2.667 2.667H9.334c-1.467 0-2.667-1.2-2.667-2.667V4c0-1.467 1.2-2.667 2.667-2.667h13.333c1.467 0 2.667 1.2 2.667 2.667v5.333h-2.667V8H9.334v16h13.333v-1.333z"/></symbol><symbol id="icon-events" viewBox="0 0 32 32"><path fill="#fff" style="fill:var(--color1, #fff)" d="M25.333 6.667h-2.667V5.334c0-.733-.6-1.333-1.333-1.333H10.666c-.733 0-1.333.6-1.333 1.333v1.333H6.666c-1.467 0-2.667 1.2-2.667 2.667v1.333c0 3.4 2.56 6.173 5.853 6.587.84 2 2.64 3.507 4.813 3.947v4.133h-4c-.733 0-1.333.6-1.333 1.333S9.932 28 10.665 28h10.667c.733 0 1.333-.6 1.333-1.333s-.6-1.333-1.333-1.333h-4v-4.133c2.173-.44 3.973-1.947 4.813-3.947 3.293-.413 5.853-3.187 5.853-6.587V9.334c0-1.467-1.2-2.667-2.667-2.667zm-18.666 4V9.334h2.667v5.093c-1.547-.56-2.667-2.027-2.667-3.76zm18.666 0c0 1.733-1.12 3.2-2.667 3.76V9.334h2.667v1.333z"/></symbol><symbol id="icon-emotions" viewBox="0 0 32 32"><path fill="#fff" style="fill:var(--color1, #fff)" d="M15.987 2.667C8.627 2.667 2.667 8.64 2.667 16s5.96 13.333 13.32 13.333c7.373 0 13.347-5.973 13.347-13.333S23.361 2.667 15.987 2.667zm-4.654 8c1.107 0 2 .893 2 2s-.893 2-2 2-2-.893-2-2 .893-2 2-2zm10.947 8.96C21.067 22.227 18.72 24 16 24s-5.067-1.773-6.28-4.373c-.213-.44.107-.96.6-.96h11.36c.493 0 .813.52.6.96zm-1.613-4.96c-1.107 0-2-.893-2-2s.893-2 2-2 2 .893 2 2-.893 2-2 2z"/></symbol><symbol id="icon-assignment" viewBox="0 0 32 32"><path fill="#fff" style="fill:var(--color1, #fff)" d="M25.333 4H19.76C19.2 2.453 17.733 1.333 16 1.333S12.8 2.453 12.24 4H6.667C5.2 4 4 5.2 4 6.667v18.667c0 1.467 1.2 2.667 2.667 2.667h18.667c1.467 0 2.667-1.2 2.667-2.667V6.667C28.001 5.2 26.801 4 25.334 4zM16 4c.733 0 1.333.6 1.333 1.333s-.6 1.333-1.333 1.333-1.333-.6-1.333-1.333S15.267 4 16 4zm1.333 18.667h-6.667c-.733 0-1.333-.6-1.333-1.333s.6-1.333 1.333-1.333h6.667c.733 0 1.333.6 1.333 1.333s-.6 1.333-1.333 1.333zm4-5.334H10.666c-.733 0-1.333-.6-1.333-1.333s.6-1.333 1.333-1.333h10.667c.733 0 1.333.6 1.333 1.333s-.6 1.333-1.333 1.333zm0-5.333H10.666c-.733 0-1.333-.6-1.333-1.333s.6-1.333 1.333-1.333h10.667c.733 0 1.333.6 1.333 1.333S22.066 12 21.333 12z"/></symbol><symbol id="icon-check" viewBox="0 0 32 32"><path fill="#fff" style="fill:var(--color1, #fff)" d="m12 21.56-4.627-4.627c-.52-.52-1.36-.52-1.88 0s-.52 1.36 0 1.88l5.573 5.573c.52.52 1.36.52 1.88 0l14.107-14.107c.52-.52.52-1.36 0-1.88s-1.36-.52-1.88 0L12 21.559z"/></symbol></defs></svg>