<svg aria-hidden="true" style="position:absolute;width:0;height:0;overflow:hidden" xmlns="http://www.w3.org/2000/svg"><defs><symbol id="icon-filter" viewBox="0 0 32 32"><path fill="#fff" style="fill:var(--color1, #fff)" d="M5.667 7.48c3.093 3.973 7.667 9.853 7.667 9.853V24c0 1.467 1.2 2.667 2.667 2.667s2.667-1.2 2.667-2.667v-6.667s4.573-5.88 7.667-9.853c.68-.88.053-2.147-1.067-2.147H6.721c-1.107 0-1.733 1.267-1.053 2.147z"/></symbol><symbol id="icon-desktop" viewBox="0 0 32 32"><path fill="#fff" style="fill:var(--color1, #fff)" d="M28 2.667H4c-1.467 0-2.667 1.2-2.667 2.667v16c0 1.467 1.2 2.667 2.667 2.667h9.333l-2.173 3.267c-.587.88.04 2.067 1.107 2.067h7.467c1.067 0 1.707-1.187 1.107-2.067l-2.173-3.267h9.333c1.467 0 2.667-1.2 2.667-2.667v-16c0-1.467-1.2-2.667-2.667-2.667zm0 16H4v-12c0-.733.6-1.333 1.333-1.333h21.333c.733 0 1.333.6 1.333 1.333v12z"/></symbol><symbol id="icon-app-settings" viewBox="0 0 32 32"><path fill="#fff" style="fill:var(--color1, #fff)" d="m29.08 16.987-1.093-.84v-.293l1.067-.84c.213-.16.267-.453.133-.68l-1.133-1.973c-.093-.173-.28-.267-.467-.267-.072 0-.141.015-.204.041l.004-.001-1.267.507c-.107-.067-.147-.093-.253-.147l-.2-1.347c-.04-.28-.267-.48-.533-.48h-2.28c-.267 0-.493.2-.533.453l-.187 1.347c-.04.027-.093.04-.133.067l-.12.08-1.267-.507a.517.517 0 0 0-.2-.04c-.187 0-.36.093-.467.267l-1.133 1.973c-.133.227-.08.52.133.68l1.067.84v.307l-1.067.84c-.213.16-.267.453-.133.68l1.133 1.973c.093.173.28.267.467.267.072 0 .141-.015.204-.041l-.004.001 1.267-.493c.107.067.16.093.267.147l.2 1.347c.04.267.267.453.533.453h2.28c.267 0 .493-.2.533-.453l.2-1.347c.04-.027.093-.04.133-.067l.12-.08 1.267.507c.059.025.128.04.2.04.187 0 .36-.093.467-.267l1.133-1.973c.133-.227.08-.52-.133-.68zM24 18c-1.107 0-2-.893-2-2s.893-2 2-2 2 .893 2 2-.893 2-2 2zm-1.333 4.667h2.667V28c0 1.467-1.2 2.667-2.667 2.667H9.334c-1.467 0-2.667-1.2-2.667-2.667V4c0-1.467 1.2-2.667 2.667-2.667h13.333c1.467 0 2.667 1.2 2.667 2.667v5.333h-2.667V8H9.334v16h13.333v-1.333z"/></symbol><symbol id="icon-events" viewBox="0 0 32 32"><path fill="#fff" style="fill:var(--color1, #fff)" d="M25.333 6.667h-2.667V5.334c0-.733-.6-1.333-1.333-1.333H10.666c-.733 0-1.333.6-1.333 1.333v1.333H6.666c-1.467 0-2.667 1.2-2.667 2.667v1.333c0 3.4 2.56 6.173 5.853 6.587.84 2 2.64 3.507 4.813 3.947v4.133h-4c-.733 0-1.333.6-1.333 1.333S9.932 28 10.665 28h10.667c.733 0 1.333-.6 1.333-1.333s-.6-1.333-1.333-1.333h-4v-4.133c2.173-.44 3.973-1.947 4.813-3.947 3.293-.413 5.853-3.187 5.853-6.587V9.334c0-1.467-1.2-2.667-2.667-2.667zm-18.666 4V9.334h2.667v5.093c-1.547-.56-2.667-2.027-2.667-3.76zm18.666 0c0 1.733-1.12 3.2-2.667 3.76V9.334h2.667v1.333z"/></symbol><symbol id="icon-emotions" viewBox="0 0 32 32"><path fill="#fff" style="fill:var(--color1, #fff)" d="M15.987 2.667C8.627 2.667 2.667 8.64 2.667 16s5.96 13.333 13.32 13.333c7.373 0 13.347-5.973 13.347-13.333S23.361 2.667 15.987 2.667zm-4.654 8c1.107 0 2 .893 2 2s-.893 2-2 2-2-.893-2-2 .893-2 2-2zm10.947 8.96C21.067 22.227 18.72 24 16 24s-5.067-1.773-6.28-4.373c-.213-.44.107-.96.6-.96h11.36c.493 0 .813.52.6.96zm-1.613-4.96c-1.107 0-2-.893-2-2s.893-2 2-2 2 .893 2 2-.893 2-2 2z"/></symbol><symbol id="icon-assignment" viewBox="0 0 32 32"><path fill="#fff" style="fill:var(--color1, #fff)" d="M25.333 4H19.76C19.2 2.453 17.733 1.333 16 1.333S12.8 2.453 12.24 4H6.667C5.2 4 4 5.2 4 6.667v18.667c0 1.467 1.2 2.667 2.667 2.667h18.667c1.467 0 2.667-1.2 2.667-2.667V6.667C28.001 5.2 26.801 4 25.334 4zM16 4c.733 0 1.333.6 1.333 1.333s-.6 1.333-1.333 1.333-1.333-.6-1.333-1.333S15.267 4 16 4zm1.333 18.667h-6.667c-.733 0-1.333-.6-1.333-1.333s.6-1.333 1.333-1.333h6.667c.733 0 1.333.6 1.333 1.333s-.6 1.333-1.333 1.333zm4-5.334H10.666c-.733 0-1.333-.6-1.333-1.333s.6-1.333 1.333-1.333h10.667c.733 0 1.333.6 1.333 1.333s-.6 1.333-1.333 1.333zm0-5.333H10.666c-.733 0-1.333-.6-1.333-1.333s.6-1.333 1.333-1.333h10.667c.733 0 1.333.6 1.333 1.333S22.066 12 21.333 12z"/></symbol><symbol id="icon-check" viewBox="0 0 32 32"><path fill="#fff" style="fill:var(--color1, #fff)" d="m12 21.56-4.627-4.627c-.52-.52-1.36-.52-1.88 0s-.52 1.36 0 1.88l5.573 5.573c.52.52 1.36.52 1.88 0l14.107-14.107c.52-.52.52-1.36 0-1.88s-1.36-.52-1.88 0L12 21.559z"/></symbol>><symbol id="icon-facebook" viewBox="0 0 32 32"><path d="M21.328 5.312h2.923V.224C23.019.081 21.591 0 20.143 0h-.156.008c-4.213 0-7.099 2.65-7.099 7.52V12H8.25v5.688h4.646V32h5.699V17.69h4.459l.707-5.688h-5.168V8.08c0-1.643.443-2.768 2.734-2.768z"/></symbol><symbol id="icon-instagram" viewBox="0 0 32 32"><path d="M31.968 9.408c-.074-1.701-.349-2.869-.742-3.882-.424-1.111-1.054-2.059-1.85-2.837l-.001-.001A7.9057 7.9057 0 0 0 26.597.861l-.054-.018C25.524.449 24.362.176 22.661.101 20.949.019 20.405 0 16.059 0c-4.344 0-4.888.019-6.595.094-1.699.074-2.869.349-3.88.742-1.112.424-2.06 1.054-2.839 1.85l-.001.001c-.791.78-1.418 1.724-1.825 2.778l-.018.054C.506 6.538.232 7.7.157 9.401c-.082 1.712-.101 2.256-.101 6.602 0 4.344.019 4.888.094 6.595.075 1.701.35 2.869.744 3.882.426 1.11 1.055 2.057 1.849 2.837l.001.001c.8.813 1.77 1.443 2.832 1.843 1.019.395 2.182.67 3.882.744 1.707.075 2.251.094 6.595.094 4.346 0 4.89-.019 6.595-.094 1.701-.074 2.869-.349 3.882-.742 2.157-.85 3.833-2.526 4.664-4.628l.019-.055c.394-1.019.669-2.182.744-3.882.075-1.707.093-2.251.093-6.595s-.006-4.888-.08-6.595zm-2.88 13.066c-.07 1.563-.333 2.406-.55 2.97-.552 1.399-1.64 2.486-3.004 3.024l-.036.012c-.56.219-1.411.482-2.968.55-1.688.075-2.194.094-6.464.094-4.269 0-4.782-.019-6.464-.094-1.563-.069-2.406-.331-2.97-.55-.721-.269-1.334-.676-1.836-1.192l-.001-.001a4.9782 4.9782 0 0 1-1.184-1.803L3.6 25.45c-.218-.563-.48-1.413-.549-2.97-.075-1.688-.094-2.195-.094-6.464 0-4.27.019-4.784.094-6.464.069-1.563.331-2.406.549-2.97.269-.722.678-1.337 1.198-1.837l.002-.002a4.972 4.972 0 0 1 1.806-1.182l.034-.011c.56-.219 1.411-.48 2.968-.55 1.688-.074 2.195-.093 6.464-.093 4.275 0 4.782.019 6.464.093 1.563.069 2.406.331 2.97.55.693.256 1.325.662 1.837 1.194.531.52.938 1.144 1.195 1.84.218.56.48 1.411.549 2.968.075 1.688.094 2.194.094 6.464 0 4.269-.019 4.768-.094 6.458z"/><path d="M16.059 7.782c-4.539.002-8.218 3.682-8.219 8.221.091 4.471 3.737 8.06 8.221 8.06s8.13-3.589 8.221-8.052v-.009c-.001-4.54-3.681-8.22-8.221-8.221zm0 13.552c-2.945 0-5.332-2.388-5.332-5.333s2.388-5.333 5.333-5.333h.001c2.946 0 5.334 2.388 5.334 5.334s-2.388 5.334-5.334 5.334zM26.525 7.458c0 1.06-.86 1.92-1.92 1.92s-1.92-.86-1.92-1.92.86-1.92 1.92-1.92 1.92.86 1.92 1.92z"/></symbol><symbol id="icon-linkedin" viewBox="0 0 32 32"><path d="M31.992 32H32V20.262c0-5.741-1.237-10.163-7.947-10.163-3.227 0-5.392 1.77-6.277 3.45h-.093v-2.914h-6.365v21.363h6.627V21.42c0-2.786.528-5.48 3.978-5.48 3.398 0 3.448 3.179 3.448 5.658V32h6.621zM.528 10.635h6.635V32H.528V10.635zM3.843 0C1.72 0 0 1.721 0 3.843c0 2.12 1.722 3.878 3.843 3.878 2.12 0 3.842-1.757 3.842-3.878S5.965.002 3.844 0z"/></symbol><symbol id="icon-twitter" viewBox="0 0 32 32"><path d="M32 6.078c-1.1.493-2.376.857-3.713 1.028l-.068.007c1.36-.817 2.382-2.078 2.873-3.579l.013-.046c-1.197.722-2.591 1.273-4.076 1.573l-.084.014c-1.2-1.279-2.9-2.076-4.787-2.076-3.622 0-6.558 2.936-6.558 6.558v.004c0 .52.043 1.021.152 1.496-5.454-.266-10.28-2.88-13.522-6.861-.564.949-.899 2.092-.902 3.313v.001c0 2.272 1.171 4.286 2.914 5.451-1.091-.03-2.107-.325-2.994-.823l.033.017v.072c.003 3.165 2.236 5.807 5.213 6.44l.043.008c-.499.136-1.071.215-1.662.215h-.061.003c-.419 0-.843-.024-1.242-.112.85 2.598 3.261 4.509 6.13 4.57-2.215 1.746-5.045 2.8-8.122 2.8H1.57h.001-.062c-.531 0-1.055-.034-1.569-.099l.061.006c2.826 1.846 6.287 2.944 10.004 2.944h.063-.003c12.072 0 18.672-10 18.672-18.669 0-.288-.01-.57-.024-.848 1.299-.936 2.39-2.064 3.258-3.355l.03-.047z"/></symbol></defs></svg>