<svg aria-hidden="true" style="position:absolute;width:0;height:0;overflow:hidden" xmlns="http://www.w3.org/2000/svg"><defs><symbol id="icon-filter" viewBox="0 0 32 32"><path fill="#fff" style="fill:var(--color1, #fff)" d="M5.667 7.48c3.093 3.973 7.667 9.853 7.667 9.853V24c0 1.467 1.2 2.667 2.667 2.667s2.667-1.2 2.667-2.667v-6.667s4.573-5.88 7.667-9.853c.68-.88.053-2.147-1.067-2.147H6.721c-1.107 0-1.733 1.267-1.053 2.147z"/></symbol><symbol id="icon-desktop" viewBox="0 0 32 32"><path fill="#fff" style="fill:var(--color1, #fff)" d="M28 2.667H4c-1.467 0-2.667 1.2-2.667 2.667v16c0 1.467 1.2 2.667 2.667 2.667h9.333l-2.173 3.267c-.587.88.04 2.067 1.107 2.067h7.467c1.067 0 1.707-1.187 1.107-2.067l-2.173-3.267h9.333c1.467 0 2.667-1.2 2.667-2.667v-16c0-1.467-1.2-2.667-2.667-2.667zm0 16H4v-12c0-.733.6-1.333 1.333-1.333h21.333c.733 0 1.333.6 1.333 1.333v12z"/></symbol><symbol id="icon-app-settings" viewBox="0 0 32 32"><path fill="#fff" style="fill:var(--color1, #fff)" d="m29.08 16.987-1.093-.84v-.293l1.067-.84c.213-.16.267-.453.133-.68l-1.133-1.973c-.093-.173-.28-.267-.467-.267-.072 0-.141.015-.204.041l.004-.001-1.267.507c-.107-.067-.147-.093-.253-.147l-.2-1.347c-.04-.28-.267-.48-.533-.48h-2.28c-.267 0-.493.2-.533.453l-.187 1.347c-.04.027-.093.04-.133.067l-.12.08-1.267-.507a.517.517 0 0 0-.2-.04c-.187 0-.36.093-.467.267l-1.133 1.973c-.133.227-.08.52.133.68l1.067.84v.307l-1.067.84c-.213.16-.267.453-.133.68l1.133 1.973c.093.173.28.267.467.267.072 0 .141-.015.204-.041l-.004.001 1.267-.493c.107.067.16.093.267.147l.2 1.347c.04.267.267.453.533.453h2.28c.267 0 .493-.2.533-.453l.2-1.347c.04-.027.093-.04.133-.067l.12-.08 1.267.507c.059.025.128.04.2.04.187 0 .36-.093.467-.267l1.133-1.973c.133-.227.08-.52-.133-.68zM24 18c-1.107 0-2-.893-2-2s.893-2 2-2 2 .893 2 2-.893 2-2 2zm-1.333 4.667h2.667V28c0 1.467-1.2 2.667-2.667 2.667H9.334c-1.467 0-2.667-1.2-2.667-2.667V4c0-1.467 1.2-2.667 2.667-2.667h13.333c1.467 0 2.667 1.2 2.667 2.667v5.333h-2.667V8H9.334v16h13.333v-1.333z"/></symbol><symbol id="icon-events" viewBox="0 0 32 32"><path fill="#fff" style="fill:var(--color1, #fff)" d="M25.333 6.667h-2.667V5.334c0-.733-.6-1.333-1.333-1.333H10.666c-.733 0-1.333.6-1.333 1.333v1.333H6.666c-1.467 0-2.667 1.2-2.667 2.667v1.333c0 3.4 2.56 6.173 5.853 6.587.84 2 2.64 3.507 4.813 3.947v4.133h-4c-.733 0-1.333.6-1.333 1.333S9.932 28 10.665 28h10.667c.733 0 1.333-.6 1.333-1.333s-.6-1.333-1.333-1.333h-4v-4.133c2.173-.44 3.973-1.947 4.813-3.947 3.293-.413 5.853-3.187 5.853-6.587V9.334c0-1.467-1.2-2.667-2.667-2.667zm-18.666 4V9.334h2.667v5.093c-1.547-.56-2.667-2.027-2.667-3.76zm18.666 0c0 1.733-1.12 3.2-2.667 3.76V9.334h2.667v1.333z"/></symbol><symbol id="icon-emotions" viewBox="0 0 32 32"><path fill="#fff" style="fill:var(--color1, #fff)" d="M15.987 2.667C8.627 2.667 2.667 8.64 2.667 16s5.96 13.333 13.32 13.333c7.373 0 13.347-5.973 13.347-13.333S23.361 2.667 15.987 2.667zm-4.654 8c1.107 0 2 .893 2 2s-.893 2-2 2-2-.893-2-2 .893-2 2-2zm10.947 8.96C21.067 22.227 18.72 24 16 24s-5.067-1.773-6.28-4.373c-.213-.44.107-.96.6-.96h11.36c.493 0 .813.52.6.96zm-1.613-4.96c-1.107 0-2-.893-2-2s.893-2 2-2 2 .893 2 2-.893 2-2 2z"/></symbol><symbol id="icon-assignment" viewBox="0 0 32 32"><path fill="#fff" style="fill:var(--color1, #fff)" d="M25.333 4H19.76C19.2 2.453 17.733 1.333 16 1.333S12.8 2.453 12.24 4H6.667C5.2 4 4 5.2 4 6.667v18.667c0 1.467 1.2 2.667 2.667 2.667h18.667c1.467 0 2.667-1.2 2.667-2.667V6.667C28.001 5.2 26.801 4 25.334 4zM16 4c.733 0 1.333.6 1.333 1.333s-.6 1.333-1.333 1.333-1.333-.6-1.333-1.333S15.267 4 16 4zm1.333 18.667h-6.667c-.733 0-1.333-.6-1.333-1.333s.6-1.333 1.333-1.333h6.667c.733 0 1.333.6 1.333 1.333s-.6 1.333-1.333 1.333zm4-5.334H10.666c-.733 0-1.333-.6-1.333-1.333s.6-1.333 1.333-1.333h10.667c.733 0 1.333.6 1.333 1.333s-.6 1.333-1.333 1.333zm0-5.333H10.666c-.733 0-1.333-.6-1.333-1.333s.6-1.333 1.333-1.333h10.667c.733 0 1.333.6 1.333 1.333S22.066 12 21.333 12z"/></symbol><symbol id="icon-check" viewBox="0 0 32 32"><path fill="#fff" style="fill:var(--color1, #fff)" d="m12 21.56-4.627-4.627c-.52-.52-1.36-.52-1.88 0s-.52 1.36 0 1.88l5.573 5.573c.52.52 1.36.52 1.88 0l14.107-14.107c.52-.52.52-1.36 0-1.88s-1.36-.52-1.88 0L12 21.559z"/></symbol><symbol id="icon-facebook" viewBox="0 0 32 32"><path d="M17.794 6.85c0-1.287 1.15-1.75 2.438-1.75s2.663.4 2.663.4L23.72.6S21.97 0 17.795 0c-2.563 0-4.05.975-5.137 2.413-1.025 1.362-1.063 3.55-1.063 4.963v3.213H8.282v4.787h3.313v16.625h6.2V15.376h4.912l.363-4.787h-5.275V6.852z"/></symbol><symbol id="icon-instagram" viewBox="0 0 32 32"><path d="M17.794 6.85c0-1.287 1.15-1.75 2.438-1.75s2.663.4 2.663.4L23.72.6S21.97 0 17.795 0c-2.563 0-4.05.975-5.137 2.413-1.025 1.362-1.063 3.55-1.063 4.963v3.213H8.282v4.787h3.313v16.625h6.2V15.376h4.912l.363-4.787h-5.275V6.852z"/></symbol><symbol id="icon-linkedin" viewBox="0 0 32 32"><path d="M7.971 10.012V32H.001V10.012h7.97zm12.014-.04v1.296c1.163-.751 2.505-1.187 4.54-1.187 6.626 0 7.475 5.144 7.475 9.626V32h-8.01V20.319c0-1.964-.703-2.337-2.003-2.337-1.236 0-2.003.392-2.003 2.337V32h-8.01V9.972h8.01zM3.985 0C6.184 0 7.97 1.788 7.97 3.985S6.184 7.97 3.985 7.97C1.788 7.97 0 6.182 0 3.985S1.788 0 3.985 0z"/></symbol><symbol id="icon-youtube" viewBox="0 0 32 32"><path d="m14.942 6.673 1.798-.003 1.954.025 1.249.028 1.331.041.897.037.879.045.84.054c1.084.078 2.003.183 2.527.323 1.148.305 2.051 1.206 2.359 2.358.115.429.206.954.279 1.517l.078.69c.023.234.044.47.062.705l.067 1.035.03.643.036 1.282.004.756-.021 1.029-.034.897-.057 1.015c-.024.35-.053.706-.087 1.058l-.078.692c-.072.564-.164 1.09-.279 1.519-.308 1.153-1.211 2.053-2.359 2.358-.523.14-1.443.245-2.527.323l-.84.054-.879.045-1.346.052-.883.026-2.341.044-1.932.011-1.77-.018-1.608-.032-1.059-.03-1.442-.056-1.116-.059-.704-.048-.657-.055c-.214-.019-.32-.03-.425-.041l.119.01-.561-.067c-.349-.048-.643-.101-.866-.16a3.328 3.328 0 0 1-2.357-2.358c-.161-.601-.275-1.391-.356-2.21l-.062-.706-.048-.698-.035-.668-.034-.897-.02-1.029v-.432l.02-1.026.034-.895.035-.667.048-.697.062-.705c.081-.818.195-1.607.356-2.208.307-1.153 1.211-2.053 2.357-2.358.223-.06.518-.113.866-.16l.561-.067c-.013-.001.092-.012.198-.022l.109-.008.657-.055.704-.048 1.116-.059.763-.032 1.738-.054 1.893-.036.757-.008zm1.388 2.661h-.648l-1.376.012-1.47.025-1.509.04-1.054.039-1.404.072-.9.063-.516.045-.443.047c-.129.014-.194.023-.26.032l.068-.008-.321.049c-.093.017-.171.033-.233.05-.224.06-.405.24-.466.47-.139.519-.245 1.297-.32 2.192l-.057.793-.043.83c-.003.044-.009.191-.014.339l-.002.084-.022.849-.006.421v.406l.005.4.02.805.032.799.045.775.057.736c.075.83.176 1.546.306 2.033.06.227.241.407.469.468l.104.025.277.049.362.048.442.047.515.045.583.042.988.058 1.108.049.671.024 1.514.041 1.471.025 1.701.013 1.072-.006 1.606-.022c.549-.01 1.107-.023 1.663-.04l1.205-.042 1.057-.049.942-.057.809-.063.658-.068.347-.047c.083-.012.132-.021.181-.03l-.037.006.225-.049c.225-.06.405-.24.467-.471.149-.555.26-1.41.337-2.391l.051-.756.021-.391.032-.797.02-.803.007-.594-.006-.593-.02-.803-.032-.796-.045-.773c-.076-1.134-.197-2.137-.364-2.763a.6666.6666 0 0 0-.472-.471c-.06-.016-.135-.032-.224-.048l-.306-.047-.384-.046-.456-.045-.523-.043-.899-.059-.668-.036-1.092-.046c-.55-.02-1.109-.037-1.664-.05l-1.64-.031-1.543-.014z"/><path d="M13.272 19.941v-7.883l6.971 3.935z"/></symbol></defs></svg>