<svg width="32" height="32" fill="none" xmlns="http://www.w3.org/2000/svg"><g clip-path="url(#a)"><path d="M8.6667 28H4c-.7333 0-1.3333-.6-1.3333-1.3333V13.3333C2.6667 12.6 3.2667 12 4 12h4.6667C9.4 12 10 12.6 10 13.3333v13.3334C10 27.4 9.4 28 8.6667 28Zm9.6666-24h-4.6666c-.7334 0-1.3334.6-1.3334 1.3333v21.3334c0 .7333.6 1.3333 1.3334 1.3333h4.6666c.7334 0 1.3334-.6 1.3334-1.3333V5.3333c0-.7333-.6-1.3333-1.3334-1.3333ZM28 14.6667h-4.6667C22.6 14.6667 22 15.2667 22 16v10.6667C22 27.4 22.6 28 23.3333 28H28c.7333 0 1.3333-.6 1.3333-1.3333V16c0-.7333-.6-1.3333-1.3333-1.3333Z" fill="#FF5E28"/></g><defs><clipPath id="a"><path fill="#fff" d="M0 0h32v32H0z"/></clipPath></defs></svg>