<svg width="32" height="32" fill="none" xmlns="http://www.w3.org/2000/svg"><g clip-path="url(#a)"><path d="M26.6667 5.3335H5.3333c-1.4666 0-2.6666 1.2-2.6666 2.6667v16c0 1.4666 1.2 2.6666 2.6666 2.6666h21.3334c1.4666 0 2.6666-1.2 2.6666-2.6666v-16c0-1.4667-1.2-2.6667-2.6666-2.6667Zm-.5334 5.6667-8.72 5.4533a2.6407 2.6407 0 0 1-2.8266 0l-8.72-5.4533c-.3334-.2134-.5334-.5734-.5334-.96 0-.8934.9734-1.4267 1.7334-.96L16 14.6668l8.9333-5.5866c.76-.4667 1.7334.0666 1.7334.96 0 .3866-.2.7466-.5334.96Z" fill="#FF5E28"/></g><defs><clipPath id="a"><path fill="#fff" d="M0 0h32v32H0z"/></clipPath></defs></svg>