<svg width="800" height="800" viewBox="0 0 512 512" xmlns="http://www.w3.org/2000/svg"><g fill="#000" fill-rule="evenodd"><path d="m239.078 106.7618 28.7686-.0415 31.267.4 19.9767.4423 21.301.6636 14.3544.5875 14.0699.7192 13.4363.8641c17.3375 1.2548 32.0542 2.9316 40.4254 5.1724 18.368 4.8754 32.8107 19.2894 37.7387 37.7308 1.84 6.8672 3.3005 15.2687 4.4595 24.279l1.2512 11.0453c.3722 3.7397.7012 7.5175.992 11.2742l1.0678 16.5631.4756 10.2915.5815 20.5101.0686 12.088-.3284 16.4637-.5384 14.355-.9185 16.2408c-.3808 5.594-.8419 11.3015-1.4002 16.9217l-1.2512 11.0648c-1.159 9.0246-2.6194 17.4352-4.4595 24.3024-4.928 18.4414-19.3707 32.8554-37.7387 37.7308-8.3712 2.2408-23.0879 3.9176-40.4254 5.1724l-13.4363.8641-14.07.7192-21.529.8361-14.1263.415-37.4509.708-30.9187.173-28.3227-.2807-25.7214-.5044-16.9417-.4795-23.0787-.894-17.8484-.9508-11.2694-.7673-10.5145-.8836a427.6852 427.6852 0 0 1-4.9068-.488l-8.9779-1.0736c-5.578-.7604-10.2935-1.612-13.8592-2.566-18.3467-4.8753-32.8107-19.2893-37.7173-37.7307-2.57-9.614-4.3975-22.2532-5.697-35.3672l-.9897-11.2973-.761-11.1732-.5626-10.692-.537-14.355-.3276-16.4637v-6.9044l.3275-16.4173.5371-14.3175.5625-10.6657.761-11.1478.9897-11.2742c1.2996-13.0888 3.1271-25.7102 5.697-35.3243 4.9067-18.4414 19.3707-32.8554 37.7174-37.7308 3.5657-.9538 8.2812-1.8055 13.8592-2.566l8.978-1.0735a427.6899 427.6899 0 0 1 4.9067-.488l10.5145-.8836 11.2694-.7673 17.8485-.9508 12.2141-.5124 27.8062-.861 30.2842-.569 12.1172-.136Zm22.2005 42.5861h-10.3687l-22.0093.1893-23.5272.4027-24.1406.6466-16.8576.623-22.4617 1.1475-14.3982 1.0033-8.2598.7212-7.0807.7534a208.7182 208.7182 0 0 0-3.0693.3863l-5.139.7862c-1.483.2644-2.731.5307-3.7287.7976-3.5885.9536-6.4786 3.8417-7.4556 7.5137-2.2179 8.2968-3.9135 20.7498-5.1238 35.0762l-.9195 12.6853-.687 13.2834a785.7338 785.7338 0 0 0-.258 6.7662l-.348 13.5816-.0933 6.7356v6.4994l.0844 6.4038.314 12.8866.5111 12.776.7127 12.4065.9187 11.7778c1.1937 13.2733 2.817 24.7343 4.9014 32.5322.9643 3.624 3.8544 6.5121 7.5113 7.484l1.671.3966 4.4259.788 5.7925.7735 7.065.7505 8.2428.719 9.3266.679 15.8154.925 17.723.787 10.7426.3774 24.224.6496 23.5423.4036 27.2208.2042 17.1481-.0963 25.699-.3535c8.7797-.1634 17.7098-.3747 26.6014-.6406l19.2842-.6716 16.9119-.7878 15.065-.9112 12.9389-1.011 10.5334-1.087 5.548-.755a95.4585 95.4585 0 0 0 2.3006-.3841l3.603-.7768c3.595-.9542 6.4848-3.8419 7.4717-7.5351 2.3802-8.8828 4.1604-22.5634 5.3858-38.2556l.8158-12.1027c.1189-2.0655.2293-4.1515.3312-6.2526l.5117-12.7445.3143-12.8456.1047-9.4996-.1038-9.4846-.3146-12.8454-.512-12.7369-.7138-12.3702c-1.2242-18.151-3.1444-34.193-5.8268-44.2037-.9794-3.6652-3.8691-6.553-7.551-7.5303-.9627-.2577-2.1597-.5147-3.5772-.7698l-4.9002-.7587-6.1398-.7404-7.296-.7148-8.3685-.682-14.3816-.9455-10.6851-.5683-17.465-.7412c-8.8058-.3222-17.7446-.5864-26.6204-.7993l-26.2429-.4919-24.6895-.2252Z"/><path d="M212.352 319.0613V192.9387l111.5307 62.9553z"/></g></svg>